<svg xmlns="http://www.w3.org/2000/svg" viewBox="0 0 181.57 136.57"><defs><style>.cls-1{fill:#f5f5f5;stroke:#bfbfbf;stroke-miterlimit:10;stroke-width:0.57px;}.cls-2{fill:#409fe1;}</style></defs><title>Asset 2</title><g id="Layer_2" data-name="Layer 2"><g id="Layer_1-2" data-name="Layer 1"><rect class="cls-1" x="0.28" y="0.28" width="181" height="136" rx="12" ry="12"/><rect class="cls-2" x="51.83" y="76.14" width="21.19" height="42.14" rx="5.79" ry="5.79"/><rect class="cls-2" x="80.19" y="66.09" width="21.19" height="52.2" rx="5.79" ry="5.79"/><rect class="cls-2" x="108.55" y="55.81" width="21.19" height="62.47" rx="5.79" ry="5.79"/><rect class="cls-2" x="23.48" y="88.44" width="21.19" height="29.84" rx="5.79" ry="5.79"/><rect class="cls-2" x="136.9" y="45.48" width="21.19" height="72.8" rx="5.79" ry="5.79"/><path class="cls-2" d="M28.14,75.33c-1-1.65.3-3.8,2.3-4.8s94.17-42.25,94.17-42.25A4.46,4.46,0,0,1,130,29.6c1.06,1.59.34,3.59-1.59,4.46,0,0-92.75,41.69-94.88,42.58S29.44,77.53,28.14,75.33Z"/><path class="cls-2" d="M126.57,42.56l24.91-22.1c1.13-.89.1-2.44-1.42-2.14L116,24.51a1.22,1.22,0,0,0-1,1.83l9.2,15.91A1.72,1.72,0,0,0,126.57,42.56Z"/></g></g></svg>