<svg xmlns="http://www.w3.org/2000/svg" viewBox="0 0 181.57 136.57"><defs><style>.cls-1{fill:#f5f5f5;stroke:#bfbfbf;stroke-miterlimit:10;stroke-width:0.57px;}.cls-2{fill:#409fe1;}</style></defs><title>Asset 4</title><g id="Layer_2" data-name="Layer 2"><g id="Layer_1-2" data-name="Layer 1"><rect class="cls-1" x="0.28" y="0.28" width="181" height="136" rx="12" ry="12"/><polygon class="cls-2" points="66.91 79.23 54.97 72.3 54.93 57.95 66.86 64.89 66.91 79.23"/><polygon class="cls-2" points="67.55 63.76 55.62 56.83 68.1 49.62 80.03 56.55 67.55 63.76"/><polygon class="cls-2" points="80.72 57.68 80.76 72.02 68.28 79.23 68.23 64.89 80.72 57.68"/><polygon class="cls-2" points="80.84 55.14 68.91 48.21 68.86 33.87 80.8 40.8 80.84 55.14"/><polygon class="cls-2" points="81.48 39.67 69.55 32.74 82.03 25.53 93.97 32.46 81.48 39.67"/><polygon class="cls-2" points="94.65 33.59 94.69 47.94 82.21 55.14 82.17 40.8 94.65 33.59"/><polygon class="cls-2" points="93.84 79.23 81.91 72.3 81.87 57.95 93.8 64.89 93.84 79.23"/><polygon class="cls-2" points="94.48 63.76 82.55 56.83 95.03 49.62 106.97 56.55 94.48 63.76"/><polygon class="cls-2" points="107.65 57.68 107.69 72.02 95.21 79.23 95.17 64.89 107.65 57.68"/><path class="cls-2" d="M146.36,107.93,119.9,81.47a8.91,8.91,0,0,0-1.32-1.08A44.44,44.44,0,1,0,105,94a9,9,0,0,0,1,1.28l26.46,26.46a8.65,8.65,0,0,0,12.25,0l1.59-1.59A8.65,8.65,0,0,0,146.36,107.93Zm-65.3-16a35.26,35.26,0,1,1,35.26-35.26A35.26,35.26,0,0,1,81.06,91.91Z"/></g></g></svg>