<svg xmlns="http://www.w3.org/2000/svg" viewBox="0 0 181.57 136.57"><defs><style>.cls-1{fill:#f5f5f5;stroke:#bfbfbf;stroke-miterlimit:10;stroke-width:0.57px;}.cls-2{fill:#409fe1;}</style></defs><title>Asset 3</title><g id="Layer_2" data-name="Layer 2"><g id="Layer_1-2" data-name="Layer 1"><rect class="cls-1" x="0.28" y="0.28" width="181" height="136" rx="12" ry="12"/><polygon class="cls-2" points="35.02 109.66 16.46 98.87 16.39 76.56 34.95 87.35 35.02 109.66"/><polygon class="cls-2" points="36.02 85.59 17.46 74.81 36.87 63.6 55.43 74.38 36.02 85.59"/><polygon class="cls-2" points="56.5 76.14 56.56 98.45 37.15 109.66 37.08 87.35 56.5 76.14"/><polygon class="cls-2" points="56.68 72.19 38.13 61.41 38.06 39.1 56.62 49.88 56.68 72.19"/><polygon class="cls-2" points="57.69 48.13 39.13 37.34 58.54 26.14 77.1 36.92 57.69 48.13"/><polygon class="cls-2" points="78.17 38.68 78.23 60.98 58.81 72.19 58.75 49.88 78.17 38.68"/><polygon class="cls-2" points="76.91 109.66 58.35 98.87 58.29 76.56 76.84 87.35 76.91 109.66"/><path class="cls-2" d="M88.76,81.7,79,87.35,79,109.66,96.91,99.34A40.69,40.69,0,0,1,88.76,81.7Z"/><path class="cls-2" d="M151.63,62.15s-.11-.23-.17-.34a22.41,22.41,0,0,0-7.29-8.24c-4.38-2.88-9.78-5.14-15.3-5l-.15,26.33Z"/><path class="cls-2" d="M128.78,110.43A36.39,36.39,0,1,1,165.17,74,36.43,36.43,0,0,1,128.78,110.43Zm0-65.44A29.06,29.06,0,1,0,157.84,74,29.08,29.08,0,0,0,128.78,45Z"/><path class="cls-2" d="M138.12,32.78c0,3-1.41,5.45-3.13,5.45H123.23c-1.73,0-3.13-2.44-3.13-5.45h0a5.86,5.86,0,0,1,3.13-5.46,14.58,14.58,0,0,1,6-1c3.14,0,4.27.31,5.75,1a6.36,6.36,0,0,1,3.13,5.46Z"/><path class="cls-2" d="M88,73.84a43.34,43.34,0,0,1,.28-4.72l-9.5-5.52L59.35,74.81,77.91,85.59l10.49-6A41.12,41.12,0,0,1,88,73.84Z"/></g></g></svg>